<svg width="12" height="12" viewBox="0 0 12 12" fill="none" xmlns="http://www.w3.org/2000/svg">
<g clip-path="url(#clip0)">
<path d="M11.731 9.4835L9.87779 7.63009C9.50866 7.26244 8.89738 7.27361 8.5154 7.65574L7.58174 8.58918C7.52276 8.55667 7.4617 8.52272 7.39751 8.48669C6.80792 8.16 6.00096 7.71224 5.1518 6.86246C4.30013 6.01089 3.85195 5.20269 3.52426 4.61272C3.48968 4.55022 3.45655 4.48995 3.42384 4.43272L4.05046 3.80704L4.35853 3.49859C4.7411 3.11591 4.75165 2.50481 4.38338 2.13609L2.53017 0.28247C2.16191 -0.0857245 1.55035 -0.0745545 1.16778 0.308119L0.645486 0.833417L0.659759 0.847586C0.484625 1.07105 0.338278 1.32879 0.229371 1.60673C0.12898 1.87129 0.0664761 2.12375 0.0378962 2.37673C-0.206808 4.40539 0.720228 6.25942 3.23609 8.77532C6.71376 12.2528 9.51632 11.9901 9.63722 11.9772C9.90054 11.9458 10.1529 11.8828 10.4094 11.7832C10.6849 11.6756 10.9424 11.5295 11.1658 11.3547L11.1772 11.3648L11.7063 10.8467C12.0881 10.4641 12.0991 9.8528 11.731 9.4835Z" fill="white" fill-opacity="0.5"/>
</g>
<defs>
<clipPath id="clip0">
<rect width="12" height="12" fill="white" transform="matrix(-1 0 0 1 12 0)"/>
</clipPath>
</defs>
</svg>
