<?xml version="1.0" encoding="utf-8"?>
<!-- Generator: Adobe Illustrator 22.1.0, SVG Export Plug-In . SVG Version: 6.00 Build 0)  -->
<svg version="1.1" id="Слой_1" xmlns="http://www.w3.org/2000/svg" xmlns:xlink="http://www.w3.org/1999/xlink" x="0px" y="0px"
	 viewBox="0 0 1080 1080" style="enable-background:new 0 0 1080 1080;" xml:space="preserve">
<style type="text/css">
	.st0{fill:#557F2D;}
	.st1{fill:#6B963E;}
	.st2{display:none;fill:#FFFFFF;}
	.st3{display:none;fill:#557F2D;}
	.st4{fill:#FFFFFF;}
	.st5{font-family:'Acrom-Bold';}
	.st6{font-size:45.9816px;}
	.st7{font-size:99.6269px;}
</style>
<g id="XMLID_554_">
	<g id="XMLID_502_">
		<path class="st0" d="M351.4,526.9c0,0,24.4,7.5,34.3-3.1c9.9-10.6,18.3-29.3,25.2-38.3c6.9-9,19.4-15.7,26.3-32.6
			c6.8-16.9,43.6-53.1,71-63.7c0,0,37.5,9.2,54,10.2c16.5,1,26.3,0.1,34,2.5c1.8,1.4,5.2,3.6,10,4.3c9.8,1.5,17.1-4.5,18.3-5.6
			c4.8-2.4,11.2-6.6,12-12.8c0.8-5.6-3.3-9.4-10.6-17.9c-5.5-6.4-22.9-34.1-29.1-43.3c-6.3-9.3-10.1-11.3-10.1-11.3
			s2.1-10.2-6.7-19.6c-10.6-11.4-18.5-10.2-26.4-23.5c-4.3-7.3-5.3-14.6-11.2-16.2c-0.3-0.1-3.6-0.9-6.8,0.8c-2.2,1.2-3.3,3-7,10.4
			c-1.8,3.5-2,6-3.4,6.7c-4,2.1-17,7.9-28.9,11.4c0,0-4.6-4-16.8-5.2c-12.1-1.2-22.9,0.5-19.2,11c-3.3,4-27,31.9-55.9,27.5
			c-3.6-0.5-7.7-1.7-12.1-3.8c0-15.1,0-30.1,0-45.2c-12.5,2.5-25,4.9-37.5,7.4C353.7,360.2,352.6,443.6,351.4,526.9z"/>
		<polygon id="XMLID_529_" class="st1" points="268.6,258.7 268.6,347.2 180.1,347.2 180.1,470.9 268.6,470.9 268.6,559.4 
			392.4,258.7 		"/>
		<polygon id="XMLID_530_" class="st0" points="392.4,347.2 392.4,258.7 268.6,559.4 392.4,559.4 392.4,470.9 480.8,470.9 
			480.8,347.2 		"/>
	</g>
	<path id="XMLID_553_" class="st2" d="M656.1,481.9c0,122.2,43.3,221.3-68.9,221.3c-112.2,0-203.1-99.1-203.1-221.3
		c0-122.2,90.9-221.3,203.1-221.3C699.5,260.6,656.1,359.6,656.1,481.9z"/>
	<g id="XMLID_550_">
		<g>
			<path id="XMLID_549_" class="st3" d="M647.5,249.2c-22.4-9.3-38.6-25.2-57.7-41.3c-9.5-8-27.6-17.7-45.3-22.1c8-15.4,12-31,12-31
				s-39.5-6.3-50.3,0c-10.4,6.1-22.9,33.4-29.2,48.7c-5.8,7.6-10.3,17-16.1,27.6c-16.2,29.4-27.5,72.2-35.4,117.7
				c12.8-18.5,33-40.5,57.3-51.5l-0.4,32.4c0,0,15,4.8,24.3,12.6c13.8,11.6,25.6,28.6,41.8,35.3c4.9,38.6-37.2,57.8-66.7,59.9
				l-0.7,12c-0.8,12.3,3.6,24.4,12.2,33.3c32.8,33.7,56.1,74.6,46.1,120.8c62.3-66.5,56.6-188.5,7-289.7l8.9-15.9
				c20.4-1.4,45.1,9.1,63.9,2C638,293,650.9,275.8,647.5,249.2z"/>
		</g>
	</g>
</g>
<path class="st4" d="M369.5,523.7c0,0-2.7,11.2,0,17.8l20.3,2.9c0,0,2.1,3.6,0,5.4c-2.1,1.8-5.1,1.8-5.1,1.8s3.9,2.5,3.9,5.4
	c0,2.9-5.1,5.4-5.1,5.4s-4.9,0-14-4.7c-4.3-2.2-8.7-6.2-8.7-6.2s6-16.7-1.5-27.9c0,0-14.3,1.8-23.9,2.2c-9.6,0.4-14.9,3.6-20.3,2.5
	c-5.4-1.1-10.7-4.7-10.7-4.7c-9.1,5-16.9,6.5-22.1,7c-4.7,0.4-9.4,0.8-10.9-1.6c-1.7-2.8,1.3-8.6,7.6-14.8c0,0-2.1-3.3-0.6-7.3
	c1.5-4,17.3-13.4,20.3-18.1c3-4.7,16.1-17.4,22.7-22.5c6.6-5.1,23.9-21.9,32-23.6c8.1-1.8,27.5-5.4,29.6-8.7
	c2.1-3.3,3-14.9,0.9-24.3c-2.1-9.4-5.7-22.3-6.3-29.4c-0.6-7.2,2.1-18.9,8.4-23.6c4.5-3.3,9.6-4.7,14.1-3.2c0.7,0.2,2.5,0.9,5.1,3.2
	c6,5.5,5.5,10.4,8.9,15.7c6.4,9.6,19.2,9.5,18.7,12.5c-0.3,2-6.2,3.1-10.1,3.1c-8.6,0.1-11.6-4.2-17.5-2.2c-0.9,0.3-4.6,1.7-6.1,5.1
	c-0.9,2.1-0.8,4.7,0.4,8.4c2.4,7.3,6.3,17.4,15.5,30.8c9.3,13.4,13.4,24.7,9.9,38.8c-3.6,14.1-13.4,28.6-20.3,35.2
	C397.6,510.6,376.1,522.6,369.5,523.7z"/>
<path class="st2" d="M226.2,689.7c0,0-3.7-12.5,0.5-36.2c0,0,0,0,0,0c0-0.4,0-0.8,0-1.1c0.1-5.4,0.2-10.9,2.8-15.7
	c0.4-0.9,0.9-1.7,1.4-2.5c6.4-24.1,20.3-54,57.3-64c10.1-2.7,20.3-4.5,30.4-5.6c7.1-3,15.5-3.8,22.4-3.2c5.2,0.5,8.9,0,13.9-1
	c2.2-0.4,5-0.7,7.6-0.7c0.2,0,0.3-0.1,0.5-0.1c4.5-1.1,8.8,0.5,13.3,0.5c5.6,0.1,11-0.1,16.6,0.4c2.2,0.2,4.4,0.6,6.5,1.1
	c0,0,0,0,0.1,0c1.1-0.2,2.2-0.2,3.3,0c0.7,0.1,1.2,0.5,1.4,1c2.1,0.4,4.3,0.8,6.5,0.9c0.1,0,0.1,0.1,0.1,0.1
	c12.3-2.1,26.9-6.4,36.8-4.5c12.2,2.3,41.9-30.7,41.9-30.7c-4.6-9.2-10.7-16.4-17.3-25.3c-5.5-7.3-9.3-23.2-7.5-44.1
	c1.8-20.9,3.6-44.1,15.6-29.7c0,0,3.5-11.8,9.3-6.9c5.8,4.9,19.5,29.7,23.2,64.7c0.5,16.4,7.7,32,7.7,32s29.2,9.7,41.7,21.6
	c12.5,11.8,40,43.1,38.1,48.7c-1.9,5.6-9.3,13.6-9.3,13.6s-1.3,13.3-13.8,18.4c-8.7,3.6-26.8,0-26.8,0s0,0-10.3,7.7
	c-0.5,0.4-1.3,1-2.2,1.8c-0.4,0.8-0.9,1.5-1.5,2.3c-1.6,2-3.3,3.1-5.4,4c-0.6,0.6-1.3,1.2-1.9,1.8c0,0.5-0.1,1-0.5,1.4
	c-0.9,1-1.8,2-2.6,3c-0.1,0.2-0.2,0.4-0.3,0.6c-0.5,1.2-1.6,1.4-2.5,1.1c-1.5,2.2-2.9,3.9-3.4,3.4c0.4,0.3,0.4,0.9,0.2,1.3
	c-0.6,1.4-1.4,1.4-2.5,2.4c-2.2,1.9-3,4.5-5,6.5c-1.1,1-2.5,1.5-3.6,2.5c-1.6,1.3-2.3,2.6-4,3.8c-2.8,1.9-5.1,2.4-7,5.6
	c-1.4,2.2-2.3,4.7-4,6.6c-1.4,1.5-2.8,2.3-4.7,3.2c-2.8,1.4-5,3.2-7.2,5.1c-3,7.5,3.8,39.3,7.8,46.9c4.4,8.3,18.3,8.2,23.2,8.2
	c4.9,0,14.8,4.8,13.6,14.5c-1.1,9.7-23.4,10.1-33.1,8.7c-9.7-1.4-23.2-2.8-23.6-14.8c0,0-9.5,1.9-16.6-12.7
	c-7-14.6-12.7-20.2-6.7-33.4l-4.2-10.1c-2.3,1.1-4.7,2.2-7.2,3c-0.2,0.1-0.4,0-0.6,0c-1.9,1.2-3.4,3.1-5.4,4.2
	c-1.2,0.7-2.4,1-3.7,1.2c-2.8,0.3-5,0.2-7.4,0.6l-41.1,18.6c0,0,21.6,6.3,28.4,4.9c6.8-1.4,15.6-10.4,25.5-4.9
	c9.8,5.6,16.9,10.2,17.1,13.9c0.2,3.7-13.8,9.3-13.8,9.3s8,3.7,3.1,8.8c-4.9,5.1-13.2,11.1-21.4,9.7c-8.2-1.4-22.8-9.3-39.8-8.3
	c-17,0.9-46.2,0-51.8,0.5c-5.6,0.5-12.3,0-4.7-19.5c0,0-18.5,2.8-31.2-1.9c0,0-23.8,19.9-53.7-3.2
	C204.4,705.9,215.5,688.8,226.2,689.7z"/>
<path class="st0" d="M134,279.3"/>
<text transform="matrix(1 0 0 1 520.9707 471.5547)"><tspan x="0" y="0" class="st1 st5 st6">ветеринарная</tspan><tspan x="-94.6" y="81" class="st1 st5 st7">клиника</tspan></text>
</svg>
