<svg xmlns="http://www.w3.org/2000/svg" width="23" height="21" viewBox="0 0 23 21">
<defs>
    <style>
      .cls-1 {
        fill: #fff;
        fill-rule: evenodd;
      }
    </style>
  </defs>
  <path id="bag_4" class="cls-1" d="M1839.28,80.141a3.022,3.022,0,0,0-2.16-.891h-2.88a5.785,5.785,0,0,0-11.52,0h-2.88a3.01,3.01,0,0,0-2.16.888,2.472,2.472,0,0,0-.7,2.063l1.44,10.5a2.806,2.806,0,0,0,2.86,2.3h14.4a2.8,2.8,0,0,0,2.86-2.335l0.23-1.866,1.2-8.59A2.475,2.475,0,0,0,1839.28,80.141Zm-10.8-3.516a2.762,2.762,0,0,1,2.88,2.625h-5.76A2.762,2.762,0,0,1,1828.48,76.625Zm7.2,15.75h-14.4l-1.44-10.5h17.28l-1.22,8.634Zm-4.32-7.875a1.378,1.378,0,0,0-1.44,1.313,1.446,1.446,0,0,1-2.88,0,1.446,1.446,0,0,0-2.88,0,4.339,4.339,0,0,0,8.64,0A1.384,1.384,0,0,0,1831.36,84.5Z" transform="translate(-1816.97 -74)"/>
</svg>
