<svg xmlns="http://www.w3.org/2000/svg" width="22.06" height="21" viewBox="0 0 22.06 21">
  <metadata><?xpacket begin="﻿" id="W5M0MpCehiHzreSzNTczkc9d"?>
<x:xmpmeta xmlns:x="adobe:ns:meta/" x:xmptk="Adobe XMP Core 5.6-c138 79.159824, 2016/09/14-01:09:01        ">
   <rdf:RDF xmlns:rdf="http://www.w3.org/1999/02/22-rdf-syntax-ns#">
      <rdf:Description rdf:about=""/>
   </rdf:RDF>
</x:xmpmeta>
                                                                                                    
                                                                                                    
                                                                                                    
                                                                                                    
                                                                                                    
                                                                                                    
                                                                                                    
                                                                                                    
                                                                                                    
                                                                                                    
                                                                                                    
                                                                                                    
                                                                                                    
                                                                                                    
                                                                                                    
                                                                                                    
                                                                                                    
                                                                                                    
                                                                                                    
                                                                                                    
                           
<?xpacket end="w"?></metadata>
<defs>
    <style>
      .cls-1 {
        fill: #fff;
        fill-rule: evenodd;
      }
    </style>
  </defs>
  <path id="profile_close_2" class="cls-1" d="M1770.87,91.513a10.855,10.855,0,0,0-6.12-6.055,6.309,6.309,0,0,0,2.46-4.9,6.785,6.785,0,0,0-6.37-6.512,7.123,7.123,0,0,0-1.69,0,6.776,6.776,0,0,0-6.36,6.512,6.3,6.3,0,0,0,2.45,4.9,10.885,10.885,0,0,0-6.12,6.055,2.451,2.451,0,0,0,.38,2.383,2.968,2.968,0,0,0,2.35,1.1h16.29a2.968,2.968,0,0,0,2.35-1.1A2.426,2.426,0,0,0,1770.87,91.513Zm-15.2-10.951a4.081,4.081,0,0,1,3.88-3.911,2.482,2.482,0,0,1,.45-0.026,2.426,2.426,0,0,1,.44.026,4.081,4.081,0,0,1,3.88,3.911A4.344,4.344,0,0,1,1755.67,80.562Zm-3.82,11.813a8.943,8.943,0,0,1,16.29,0h-16.29Z" transform="translate(-1748.97 -74)"/>
</svg>
